# xmcd
#
# Track frame offsets:
#	150
#	14854
#	29676
#	44715
#	59823
#	75425
#	91060
#	108108
#	129374
#	147166
#	162610
#	177398
#	192478
#	212800
#
# Disc length: 2985 seconds
#
# Revision: 0
# Processed by: cddbd v1.5.2PL0 Copyright (c) Steve Scherf et al.
# Submitted via: SynApp - FreeCDDB Version: 2.3
#
DISCID=d00ba70e
DTITLE=Various Artist - Goldene Schlagerparade 2-2006
DYEAR=2006
DGENRE=Ambient
TTITLE0=Carl Peyer und Gisi Hafner - Herzklopfen
TTITLE1=Andreas Fulterer - Der Ring
TTITLE2=Francine Jordi - Hoer auf dein Herz
TTITLE3=Junge Paldauer - Ich will leben
TTITLE4=Styrina - Ich hab von dir getraeumt
TTITLE5=Alexander - In Liebe vereint
TTITLE6=Angela Wiedl - Ein Licht im Dunkel
TTITLE7=Daniel Weber - Wir sind Giganten
TTITLE8=Andreas Rauch - Ich komm von dir nicht los
TTITLE9=Lys Assia - Traeume in blue
TTITLE10=Ines Adler - Das muss Schlager sein
TTITLE11=Truck Stop - Alle machens
TTITLE12=Anja Regitz - Hotel der Schweigepflicht
TTITLE13=V.I.A. - Da sind wir dabei
EXTD=
EXTT0=
EXTT1=
EXTT2=
EXTT3=
EXTT4=
EXTT5=
EXTT6=
EXTT7=
EXTT8=
EXTT9=
EXTT10=
EXTT11=
EXTT12=
EXTT13=
PLAYORDER=
